<svg width="224" height="223" viewBox="0 0 224 223" fill="none" xmlns="http://www.w3.org/2000/svg">
    <path d="M223 107.97V107.66L222.76 107.52C217.579 104.559 211.727 102.972 205.76 102.91C205.64 102.11 204.88 96.43 204.76 95.62C210.515 94.0265 215.763 90.9787 220 86.77L220.21 86.58L220.15 86.27C219.79 83.8753 219.166 81.5277 218.29 79.27L218.17 78.99L217.88 78.92C212.116 77.419 206.064 77.419 200.3 78.92C200.02 78.17 197.86 72.92 197.55 72.2C202.642 69.1459 206.896 64.8747 209.93 59.77L210.07 59.54L210 59.27C209.012 57.0716 207.806 54.9777 206.4 53.02L206.23 52.78H205.91C199.958 52.8187 194.111 54.356 188.91 57.25C188.43 56.59 184.91 52.02 184.44 51.38C188.613 47.1321 191.64 41.8956 193.24 36.16L193.32 35.86L193.11 35.63C191.604 33.7251 189.89 31.9944 188 30.47L187.78 30.3H187.47C181.74 31.9027 176.506 34.9221 172.25 39.08C171.59 38.57 167.03 35 166.37 34.46C169.277 29.4407 170.869 23.7688 171 17.97V17.23L170.77 17.05C168.829 15.5878 166.717 14.3688 164.48 13.42L164.22 13.32L163.97 13.45C158.839 16.4338 154.552 20.6733 151.51 25.77C150.73 25.47 145.18 23.14 144.45 22.77C145.209 19.8665 145.609 16.8809 145.64 13.88C145.67 10.9506 145.269 8.03281 144.45 5.21999L144.38 4.93999L144.09 4.82999C141.86 3.93464 139.535 3.29717 137.16 2.92999L136.83 2.87999L136.64 3.07999C132.462 7.32515 129.43 12.5623 127.83 18.3C127.01 18.16 121.27 17.45 120.4 17.36C120.363 11.396 118.793 5.54179 115.84 0.359993L115.7 0.209993H115.4C112.994 -0.0599881 110.566 -0.0599881 108.16 0.209993H107.84L107.7 0.479993C104.77 5.64892 103.204 11.4787 103.15 17.42C102.32 17.53 96.49 18.24 95.65 18.42C94.0583 12.67 91.026 7.42118 86.84 3.16999L86.62 2.94999H86.3C83.9242 3.32289 81.5945 3.94637 79.35 4.80999L79.07 4.92999L78.96 5.20999C78.1889 8.06588 77.8022 11.0119 77.81 13.97C77.8644 16.9395 78.2637 19.8927 79 22.77C78.27 23.08 72.67 25.49 71.92 25.77C68.8841 20.6596 64.6179 16.39 59.51 13.35L59.25 13.19L58.94 13.3C56.7439 14.3023 54.6535 15.5217 52.7 16.94L52.44 17.1V17.9C52.5543 23.7267 54.1217 29.4326 57 34.5C56.37 35.02 52.16 38.32 51.52 38.83C47.2675 34.6537 42.0287 31.6198 36.29 30.01L36.01 29.95L35.8 30.15C33.884 31.6392 32.1489 33.3475 30.63 35.24L30.44 35.48L30.51 35.77C32.1092 41.5079 35.1249 46.7519 39.28 51.02C38.82 51.66 35.15 56.44 34.64 57.1C29.4609 54.1371 23.6066 52.5564 17.64 52.51H17.36L17.18 52.76C15.7508 54.7152 14.534 56.8171 13.55 59.03L13.43 59.29L13.58 59.57C16.6124 64.6996 20.8826 68.987 26 72.04C25.72 72.78 23.59 77.96 23.27 78.71C17.498 77.193 11.432 77.193 5.66 78.71L5.36999 78.78L5.26999 79.04C4.37593 81.2946 3.73858 83.6427 3.36999 86.04V86.34L3.57998 86.58C7.82203 90.7505 13.0674 93.7572 18.81 95.31C18.69 96.13 17.94 101.87 17.81 102.65C11.8485 102.705 5.99891 104.275 0.809995 107.21L0.540006 107.36V107.66C0.273733 110.069 0.273733 112.501 0.540006 114.91V115.2L0.809995 115.34C5.99325 118.288 11.8471 119.855 17.81 119.89C17.93 120.72 18.74 126.61 18.81 127.42C13.0817 129.055 7.85532 132.101 3.60998 136.28L3.39999 136.53V136.8C3.78595 139.192 4.41936 141.538 5.29001 143.8L5.41 144.06L5.67999 144.16C11.4581 145.656 17.5219 145.656 23.3 144.16C23.6 144.9 25.88 150.16 26.2 150.87C21.0844 153.89 16.8128 158.152 13.78 163.26L13.65 163.53L13.75 163.81C14.7403 166.019 15.9604 168.117 17.39 170.07L17.57 170.31H17.85C23.8067 170.276 29.6568 168.728 34.85 165.81C35.35 166.43 38.94 171.11 39.41 171.75C35.2274 175.983 32.1979 181.215 30.61 186.95L30.54 187.23L30.72 187.47C32.2504 189.344 33.9583 191.065 35.82 192.61L36.06 192.82L36.35 192.72C42.0894 191.142 47.3336 188.131 51.59 183.97C52.25 184.49 56.9 188.06 57.59 188.57C54.7447 193.686 53.1898 199.418 53.06 205.27V205.88L53.33 206.09C55.2837 207.497 57.3703 208.709 59.56 209.71L59.83 209.81L60.12 209.67C65.2624 206.636 69.5498 202.345 72.58 197.2L79.16 199.87C78.4103 202.744 78.0206 205.7 78 208.67C77.982 211.631 78.3826 214.581 79.19 217.43L79.25 217.72L79.55 217.83C81.8077 218.721 84.1545 219.368 86.55 219.76H86.87L87.08 219.52C91.2585 215.297 94.264 210.059 95.8 204.32C96.64 204.46 102.52 205.32 103.34 205.38C103.401 211.323 104.981 217.151 107.93 222.31L108.05 222.57H108.38C110.782 222.84 113.208 222.84 115.61 222.57H115.9L116.05 222.31C118.98 217.117 120.561 211.272 120.65 205.31C121.47 205.2 126.97 204.43 127.79 204.31C129.354 210.064 132.382 215.315 136.58 219.55L136.8 219.75H137.07C139.459 219.357 141.803 218.73 144.07 217.88L144.33 217.75L144.42 217.48C145.203 214.627 145.587 211.679 145.56 208.72C145.539 205.722 145.156 202.737 144.42 199.83C145.18 199.54 150.51 197.23 151.26 196.9C154.302 202.014 158.57 206.29 163.68 209.34L163.92 209.46L164.21 209.35C166.441 208.38 168.551 207.155 170.5 205.7L170.73 205.56V204.75C170.575 198.959 169.031 193.29 166.23 188.22C166.87 187.72 171.23 184.3 171.9 183.79C176.185 187.938 181.431 190.958 187.17 192.58L187.45 192.66L187.67 192.46C189.549 190.932 191.274 189.224 192.82 187.36L193.02 187.1L192.92 186.84C191.348 181.1 188.344 175.852 184.19 171.59C184.68 170.94 188.19 166.27 188.71 165.59C193.899 168.517 199.752 170.063 205.71 170.08H206.01L206.19 169.86C207.661 167.922 208.881 165.805 209.82 163.56L209.94 163.31L209.8 163.04C206.776 157.941 202.554 153.658 197.5 150.56C197.8 149.82 199.91 144.67 200.22 143.93C205.969 145.466 212.021 145.466 217.77 143.93L218.03 143.84L218.15 143.58C219.032 141.321 219.672 138.974 220.06 136.58V136.28L219.84 136.05C215.625 131.874 210.409 128.851 204.69 127.27C204.82 126.47 205.6 120.95 205.69 120.14C211.654 120.087 217.506 118.51 222.69 115.56L222.93 115.4V115.09C223.075 113.889 223.141 112.68 223.13 111.47C223.161 110.302 223.117 109.133 223 107.97ZM111.79 194.27C95.2744 194.274 79.1286 189.38 65.3944 180.207C51.6603 171.035 40.9548 157.995 34.6318 142.738C28.3088 127.481 26.6524 110.691 29.872 94.4922C33.0916 78.2935 41.0426 63.4133 52.7195 51.7337C64.3964 40.054 79.2746 32.0994 95.4726 28.8759C111.671 25.6524 128.461 27.3048 143.719 33.6241C158.978 39.9435 172.02 50.6459 181.196 64.3778C190.372 78.1097 195.27 94.2544 195.27 110.77C195.246 132.905 186.444 154.126 170.794 169.78C155.144 185.434 133.925 194.241 111.79 194.27Z" fill="#F7A81B"/>
    <path d="M111.79 37.32C97.2602 37.318 83.056 41.625 70.9741 49.6961C58.8921 57.7672 49.475 69.24 43.9137 82.6635C38.3525 96.0869 36.8969 110.858 39.731 125.109C42.5652 139.36 49.5618 152.45 59.836 162.724C70.1101 172.998 83.2003 179.995 97.4511 182.829C111.702 185.663 126.473 184.208 139.897 178.646C153.32 173.085 164.793 163.668 172.864 151.586C180.935 139.504 185.242 125.3 185.24 110.77C185.221 91.2955 177.477 72.624 163.707 58.8535C149.936 45.083 131.264 37.3385 111.79 37.32ZM121 49.13C121.385 48.9029 121.816 48.7669 122.262 48.7322C122.707 48.6975 123.155 48.7652 123.57 48.93C138.33 52.5 149.16 58.73 159.74 69.85C160.385 70.4111 160.798 71.1915 160.9 72.04V72.3C160.68 73.3 159.55 73.85 158.54 74.3L127.64 89.3C127.149 89.5884 126.593 89.7463 126.024 89.7585C125.455 89.7708 124.893 89.637 124.39 89.37C123.909 89.063 123.512 88.6404 123.236 88.1409C122.96 87.6414 122.814 87.0807 122.81 86.51L120.32 52.28C120.22 50.64 120.44 49.63 121 49.13ZM63.63 70.13C74.2 59.03 85.02 52.76 99.78 49.22C100.19 49.0531 100.634 48.9852 101.075 49.0217C101.516 49.0582 101.943 49.1981 102.32 49.43C102.95 49.91 103.16 50.92 103.05 52.56L100.6 86.77C100.611 87.34 100.474 87.903 100.202 88.4043C99.9303 88.9055 99.5334 89.3278 99.05 89.63C98.5474 89.897 97.9848 90.0308 97.4159 90.0185C96.8469 90.0063 96.2906 89.8484 95.8 89.56L64.92 74.56C63.92 74.06 62.73 73.56 62.53 72.56C62.5208 72.0928 62.6178 71.6295 62.8135 71.2052C63.0092 70.7808 63.2987 70.4063 63.66 70.11L63.63 70.13ZM56.3 133.57C54.96 134.49 53.97 134.82 53.21 134.57C52.45 134.32 52.09 133.35 51.82 132.44C47.45 117.86 47.45 105.36 51.77 90.66C52.14 89.4 52.67 88.66 53.34 88.46C54.34 88.1 55.34 88.83 56.34 89.46L84.72 108.77C85.2135 109.054 85.6277 109.457 85.9248 109.943C86.2218 110.429 86.3921 110.981 86.42 111.55C86.3813 112.11 86.2107 112.653 85.9222 113.134C85.6337 113.615 85.2355 114.022 84.76 114.32L56.3 133.57ZM102.9 173.77C102.512 173.99 102.077 174.118 101.631 174.142C101.186 174.166 100.74 174.087 100.33 173.91C85.58 170.39 74.73 164.15 64.18 153.02C63.5436 152.48 63.1362 151.719 63.04 150.89C63.0262 150.787 63.0262 150.683 63.04 150.58C63.18 149.58 64.37 149.04 65.37 148.58L96.27 133.58C96.7549 133.274 97.3141 133.106 97.8875 133.094C98.4608 133.082 99.0265 133.227 99.5235 133.513C100.021 133.799 100.43 134.216 100.708 134.717C100.986 135.219 101.121 135.787 101.1 136.36L103.6 170.66C103.76 172.25 103.52 173.25 102.93 173.77H102.9ZM111.7 131.01C107.389 130.998 103.197 129.598 99.7441 127.018C96.2908 124.439 93.7599 120.815 92.526 116.685C91.2921 112.555 91.4208 108.137 92.8929 104.086C94.3651 100.034 97.1025 96.5646 100.7 94.19C101.144 93.8965 101.641 93.6933 102.164 93.592C102.686 93.4907 103.223 93.4933 103.745 93.5996C104.266 93.7059 104.761 93.9139 105.202 94.2117C105.643 94.5094 106.022 94.8911 106.315 95.335C106.609 95.7789 106.812 96.2762 106.913 96.7986C107.014 97.321 107.012 97.8582 106.905 98.3796C106.799 98.901 106.591 99.3964 106.293 99.8374C105.996 100.278 105.614 100.657 105.17 100.95C103.009 102.366 101.362 104.441 100.475 106.868C99.5874 109.295 99.5072 111.943 100.246 114.419C100.985 116.895 102.503 119.067 104.575 120.61C106.646 122.154 109.161 122.988 111.745 122.988C114.329 122.988 116.844 122.154 118.916 120.61C120.987 119.067 122.505 116.895 123.244 114.419C123.983 111.943 123.903 109.295 123.015 106.868C122.128 104.441 120.481 102.366 118.32 100.95C117.424 100.357 116.799 99.4327 116.585 98.3796C116.37 97.3266 116.582 96.2314 117.175 95.335C117.768 94.4386 118.692 93.8143 119.745 93.5996C120.798 93.3849 121.894 93.5973 122.79 94.19C126.392 96.5629 129.134 100.033 130.609 104.087C132.084 108.14 132.214 112.561 130.98 116.694C129.745 120.827 127.212 124.452 123.756 127.032C120.299 129.613 116.103 131.011 111.79 131.02L111.7 131.01ZM159.78 152.62C149.25 163.7 138.47 169.94 123.63 173.5C123.199 173.67 122.735 173.737 122.273 173.697C121.812 173.657 121.366 173.511 120.97 173.27C120.19 172.62 120.29 171.27 120.37 170.19L122.83 135.94C122.851 135.363 123.008 134.799 123.29 134.294C123.572 133.79 123.969 133.36 124.45 133.04C124.956 132.8 125.512 132.684 126.072 132.701C126.632 132.719 127.18 132.869 127.67 133.14L158.58 148.14C160.03 148.85 160.8 149.55 160.95 150.32C161.1 151.09 160.5 151.89 159.81 152.6L159.78 152.62ZM170.2 88.28C171.03 88.56 171.36 89.48 171.61 90.39C175.96 104.98 175.96 117.47 171.61 132.18C171.26 133.44 170.75 134.18 170.08 134.41C169.08 134.71 168.08 134.01 167.16 133.35L138.74 114.07C138.243 113.785 137.825 113.38 137.523 112.893C137.221 112.406 137.045 111.852 137.01 111.28C137.048 110.709 137.226 110.156 137.528 109.67C137.829 109.183 138.246 108.778 138.74 108.49L167.16 89.22C168.47 88.28 169.48 87.99 170.23 88.26L170.2 88.28Z" fill="#F7A81B"/>
    </svg>
    